<?xml version="1.0" encoding="UTF-8" standalone="no"?>
<!-- Created with Inkscape (http://www.inkscape.org/) -->

<svg
   width="185.35605mm"
   height="187.28058mm"
   viewBox="0 0 185.35605 187.28058"
   version="1.1"
   id="svg1"
   sodipodi:docname="isoLogoTechnoWhite.svg"
   inkscape:version="1.3.2 (091e20e, 2023-11-25, custom)"
   xmlns:inkscape="http://www.inkscape.org/namespaces/inkscape"
   xmlns:sodipodi="http://sodipodi.sourceforge.net/DTD/sodipodi-0.dtd"
   xmlns="http://www.w3.org/2000/svg"
   xmlns:svg="http://www.w3.org/2000/svg">
  <sodipodi:namedview
     id="namedview1"
     pagecolor="#ffffff"
     bordercolor="#000000"
     borderopacity="0.25"
     inkscape:showpageshadow="2"
     inkscape:pageopacity="0.0"
     inkscape:pagecheckerboard="0"
     inkscape:deskcolor="#d1d1d1"
     inkscape:document-units="mm"
     inkscape:zoom="0.65976097"
     inkscape:cx="350.88465"
     inkscape:cy="353.91605"
     inkscape:window-width="1366"
     inkscape:window-height="705"
     inkscape:window-x="-8"
     inkscape:window-y="110"
     inkscape:window-maximized="1"
     inkscape:current-layer="svg1" />
  <defs
     id="defs1" />
  <g
     id="layer1"
     transform="translate(-12.047397,-54.01361)"
     style="stroke:#ffffff;stroke-opacity:1">
    <g
       id="g9"
       transform="matrix(2.8098087,0,0,2.8098087,-213.92749,-196.79276)"
       style="stroke:#ffffff;stroke-opacity:1">
      <path
         style="fill:none;stroke:#ffffff;stroke-width:4.56931;stroke-dasharray:none;stroke-opacity:1"
         d="m 121.54657,92.704946 c 2.52882,0.04401 8.34435,2.841337 11.64103,5.614733 4.3365,3.648151 7.86361,8.433881 9.89739,13.822781 l -28.85913,-0.0443 V 91.560414 c -13.60457,-0.486198 -31.775543,11.407406 -31.514881,31.868976 0.1051,8.25017 3.576056,15.25438 8.648041,20.55632 6.068608,6.34375 14.82697,10.14947 22.62071,9.58642 l 0.17705,-19.65254 h 29.1247 c -1.30915,4.28017 -4.07446,8.29302 -7.53626,11.38554 -5.46316,4.88038 -12.86079,7.68832 -14.26032,7.69159"
         id="path1" />
      <path
         style="fill:none;stroke:#ffffff;stroke-width:4.56931;stroke-dasharray:none;stroke-opacity:1"
         d="m 114.04881,104.83915 c -7.82243,0.89184 -17.513026,5.66209 -17.35089,18.23614 0.137054,10.62908 8.20106,16.23238 17.17384,17.35089"
         id="path2" />
    </g>
  </g>
</svg>
